<?xml version="1.0" encoding="utf-8"?>
<!-- Generator: Adobe Illustrator 25.0.0, SVG Export Plug-In . SVG Version: 6.00 Build 0)  -->
<svg version="1.1" id="Ebene_1" xmlns="http://www.w3.org/2000/svg" xmlns:xlink="http://www.w3.org/1999/xlink" x="0px" y="0px"
	 viewBox="0 0 283.46 121.89" style="enable-background:new 0 0 283.46 121.89;" xml:space="preserve">
<style type="text/css">
	.st0{fill:#0A1F62;}
</style>
<path class="st0" d="M253.32,74.85h-15.99l-2.07,6.9h-14.72l17.58-50.51h14.1l17.49,50.51h-14.52L253.32,74.85z M249.87,64
	l-4.65-15.9L240.37,64H249.87z"/>
<polygon class="st0" points="188.63,31.25 225.59,31.25 225.59,44.01 203.26,44.01 203.26,51.92 222.49,51.92 222.49,63.76 
	203.26,63.76 203.26,81.76 188.63,81.76 "/>
<polygon class="st0" points="140.14,31.25 154.68,31.25 162.95,64.83 170.53,31.25 185.26,31.25 170.26,81.76 154.46,81.76 "/>
<path class="st0" d="M139.65,46.54c-1.12-3.08-2.17-5.78-4.65-8.1c-2.48-2.32-3.68-3.72-7.22-5.34c-2.4-1.1-5.24-1.86-7.91-1.86
	H95.48v6.92l3.75,3.75c8.32,8.32,8.32,21.81,0,30.13l-3.75,3.75v5.96h24.39c2.11,0,4.37-0.02,7.39-1.38c3.3-1.48,4.07-2.07,6.28-4
	c2.75-2.39,3.64-4.51,5.28-7.47c1.67-2.99,2.51-7.18,2.51-12.58C141.32,52.88,140.76,49.62,139.65,46.54z M124.49,65.42
	c-1.05,1.79-3.71,3.31-5.47,3.79c-0.89,0.24,0.17,0.16-4.23,0.16h-5.16V43.78h5.25c2.16,0,5.2,0.16,7.41,1.87
	c2.46,1.91,4.63,5.64,4.63,10.99C126.93,60.68,125.55,63.61,124.49,65.42z"/>
<g>
	<path class="st0" d="M95.77,102.46h-2.13L99.8,88.5h2.09l6.15,13.96h-2.13l-5-11.75h-0.13L95.77,102.46z M96.56,97.01h8.57v1.5
		h-8.57V97.01z"/>
	<path class="st0" d="M119.17,102.46V88.5h2.03v6.92h0.2l7.52-6.92h2.65l-7.03,6.3l7.03,7.66h-2.45l-5.82-6.49l-2.09,1.96v4.52
		H119.17z"/>
	<path class="st0" d="M143.37,102.46h-2.13l6.15-13.96h2.09l6.15,13.96h-2.13l-5-11.75h-0.13L143.37,102.46z M144.15,97.01h8.57v1.5
		h-8.57V97.01z"/>
	<path class="st0" d="M171.94,102.46h-5.17V88.5h5.4c1.62,0,3.01,0.28,4.17,0.83c1.16,0.56,2.04,1.36,2.66,2.39
		c0.62,1.04,0.92,2.28,0.92,3.72c0,1.45-0.31,2.7-0.93,3.75c-0.62,1.05-1.53,1.85-2.71,2.41
		C175.08,102.18,173.64,102.46,171.94,102.46z M168.8,100.96h3.01c1.38,0,2.53-0.22,3.44-0.67c0.91-0.45,1.59-1.08,2.04-1.9
		c0.45-0.82,0.67-1.8,0.67-2.94c0-1.13-0.22-2.1-0.66-2.91c-0.44-0.82-1.1-1.44-1.98-1.88c-0.88-0.44-1.97-0.66-3.28-0.66h-3.24
		V100.96z"/>
	<path class="st0" d="M191.84,102.46V88.5h10.11V90h-8.08v4.72h7.55v1.5h-7.55v4.74h8.21v1.5H191.84z"/>
	<path class="st0" d="M214.12,88.5h2.42l5.69,11.58h0.2l5.69-11.58h2.42v13.96h-1.9v-10.6h-0.16l-5.23,10.6h-1.83l-5.23-10.6h-0.16
		v10.6h-1.9V88.5z"/>
	<path class="st0" d="M245.15,88.5v13.96h-2.03V88.5H245.15z"/>
	<path class="st0" d="M257.7,102.46V88.5h10.11V90h-8.08v4.72h7.56v1.5h-7.56v4.74h8.21v1.5H257.7z"/>
</g>
<g>
	<path class="st0" d="M80.28,27.89l-9.72-9.72c-7.44-7.44-19.52-7.45-26.96,0L18.11,43.66c-7.44,7.44-7.44,19.52,0,26.96l9.72,9.72
		l5.99-5.99l-9.72-9.72c-4.14-4.14-4.14-10.84,0-14.98l25.49-25.49c4.14-4.14,10.84-4.14,14.98,0l9.72,9.72L80.28,27.89z
		 M70.56,96.12l25.49-25.49c7.44-7.44,7.44-19.52,0-26.96l-9.72-9.72l-5.99,5.99l9.72,9.72c4.14,4.14,4.14,10.84,0,14.98
		L64.57,90.12c-4.14,4.14-10.84,4.14-14.98,0l-9.72-9.72l-5.99,5.99l9.72,9.72C51.05,103.56,63.12,103.56,70.56,96.12"/>
	<g>
		<path class="st0" d="M73.89,52.42l0-4.48c0-6.18-5.18-11.2-11.55-11.2l-10.6,0.01v5.66l-3.9,0C41.85,42.4,37,47.09,37,52.87
			L37,62.44h4.68v4.49c0,6.18,5.19,11.2,11.57,11.2l10.6-0.01v-5.66l3.71,0c5.98,0,10.83-4.69,10.83-10.47l0.01-9.57H73.89z
			 M53.42,38.38l8.91-0.01c5.44,0,9.86,4.29,9.86,9.57l0.01,8.67h-3.43v-4.97h-6.8v4.97h-3.43l0-4.97h-5.12v-3.33h5.12l0-6.6h-5.12
			V38.38z M47.36,47.94l0,4.49h-4.63C42.72,49.95,44.8,47.94,47.36,47.94z M62.16,76.49l-8.91,0.01c-5.45,0-9.88-4.29-9.88-9.57
			l0-8.68h3.45v4.97h6.77l0-4.97h3.45v4.97h5.12v3.33h-5.12v6.6h5.12V76.49z M68.04,66.93l0-4.49h4.63
			C72.67,64.91,70.59,66.93,68.04,66.93z"/>
		<path class="st0" d="M47.3,66.55v0.82c0,2.9,2.43,5.27,5.43,5.27h0.85l-0.01-6.08H47.3z M49.08,68.19h2.79l0,2.72
			C50.5,70.59,49.4,69.53,49.08,68.19z"/>
		<path class="st0" d="M68.23,48.32V47.5c0-2.9-2.43-5.27-5.43-5.27h-0.85l0,6.08H68.23z M66.44,46.68h-2.79l0-2.72
			C65.03,44.27,66.12,45.33,66.44,46.68z"/>
	</g>
</g>
</svg>
